<?xml version="1.0" encoding="UTF-8" standalone="no"?> <svg width="48" height="48" viewBox="0 0 48 48" fill="none" xmlns="http://www.w3.org/2000/svg">
<g clip-path="url(#clip0_4:37)">
<path d="M45 20H44V18C44 17.2044 43.6839 16.4413 43.1213 15.8787C42.5587 15.3161 41.7956 15 41 15H39V13C39 12.2044 38.6839 11.4413 38.1213 10.8787C37.5587 10.3161 36.7956 10 36 10H33C32.2044 10 31.4413 10.3161 30.8787 10.8787C30.3161 11.4413 30 12.2044 30 13V20H18V13C18 12.2044 17.6839 11.4413 17.1213 10.8787C16.5587 10.3161 15.7956 10 15 10H12C11.2044 10 10.4413 10.3161 9.87868 10.8787C9.31607 11.4413 9 12.2044 9 13V15H7C6.20435 15 5.44129 15.3161 4.87868 15.8787C4.31607 16.4413 4 17.2044 4 18V20H3C2.20435 20 1.44129 20.3161 0.87868 20.8787C0.31607 21.4413 0 22.2044 0 23L0 25C0 25.7956 0.31607 26.5587 0.87868 27.1213C1.44129 27.6839 2.20435 28 3 28H4V30C4 30.7956 4.31607 31.5587 4.87868 32.1213C5.44129 32.6839 6.20435 33 7 33H9V35C9 35.7956 9.31607 36.5587 9.87868 37.1213C10.4413 37.6839 11.2044 38 12 38H15C15.7956 38 16.5587 37.6839 17.1213 37.1213C17.6839 36.5587 18 35.7956 18 35V28H30V35C30 35.7956 30.3161 36.5587 30.8787 37.1213C31.4413 37.6839 32.2044 38 33 38H36C36.7956 38 37.5587 37.6839 38.1213 37.1213C38.6839 36.5587 39 35.7956 39 35V33H41C41.7956 33 42.5587 32.6839 43.1213 32.1213C43.6839 31.5587 44 30.7956 44 30V28H45C45.7956 28 46.5587 27.6839 47.1213 27.1213C47.6839 26.5587 48 25.7956 48 25V23C48 22.2044 47.6839 21.4413 47.1213 20.8787C46.5587 20.3161 45.7956 20 45 20ZM3 26C2.73478 26 2.48043 25.8946 2.29289 25.7071C2.10536 25.5196 2 25.2652 2 25V23C2 22.7348 2.10536 22.4804 2.29289 22.2929C2.48043 22.1054 2.73478 22 3 22H4V26H3ZM7 31C6.73478 31 6.48043 30.8946 6.29289 30.7071C6.10536 30.5196 6 30.2652 6 30V18C6 17.7348 6.10536 17.4804 6.29289 17.2929C6.48043 17.1054 6.73478 17 7 17H9V31H7ZM16 35C16 35.2652 15.8946 35.5196 15.7071 35.7071C15.5196 35.8946 15.2652 36 15 36H12C11.7348 36 11.4804 35.8946 11.2929 35.7071C11.1054 35.5196 11 35.2652 11 35V13C11 12.7348 11.1054 12.4804 11.2929 12.2929C11.4804 12.1054 11.7348 12 12 12H15C15.2652 12 15.5196 12.1054 15.7071 12.2929C15.8946 12.4804 16 12.7348 16 13V35ZM18 26V22H30V26H18ZM37 35C37 35.2652 36.8946 35.5196 36.7071 35.7071C36.5196 35.8946 36.2652 36 36 36H33C32.7348 36 32.4804 35.8946 32.2929 35.7071C32.1054 35.5196 32 35.2652 32 35V13C32 12.7348 32.1054 12.4804 32.2929 12.2929C32.4804 12.1054 32.7348 12 33 12H36C36.2652 12 36.5196 12.1054 36.7071 12.2929C36.8946 12.4804 37 12.7348 37 13V35ZM42 30C42 30.2652 41.8946 30.5196 41.7071 30.7071C41.5196 30.8946 41.2652 31 41 31H39V17H41C41.2652 17 41.5196 17.1054 41.7071 17.2929C41.8946 17.4804 42 17.7348 42 18V30ZM46 25C46 25.2652 45.8946 25.5196 45.7071 25.7071C45.5196 25.8946 45.2652 26 45 26H44V22H45C45.2652 22 45.5196 22.1054 45.7071 22.2929C45.8946 22.4804 46 22.7348 46 23V25Z" fill="black"/>
</g>
<defs>
<clipPath id="clip0_4:37">
<rect width="48" height="48" fill="white"/>
</clipPath>
</defs>
</svg>
